<mxfile host="app.diagrams.net" agent="Mozilla/5.0 (Windows NT 10.0; Win64; x64; rv:137.0) Gecko/20100101 Firefox/137.0" version="26.2.14">
  <diagram name="Page-1" id="hVkFm149pKsA2niMRCKo">
    <mxGraphModel dx="2934" dy="2170" grid="1" gridSize="10" guides="1" tooltips="1" connect="1" arrows="1" fold="1" page="1" pageScale="1" pageWidth="850" pageHeight="1100" math="0" shadow="0">
      <root>
        <mxCell id="0" />
        <mxCell id="1" parent="0" />
        <mxCell id="30yQaxvcxM4nG7VqYGFR-7" style="edgeStyle=orthogonalEdgeStyle;rounded=0;orthogonalLoop=1;jettySize=auto;html=1;entryX=0.25;entryY=1;entryDx=0;entryDy=0;endArrow=block;endFill=0;exitX=0.5;exitY=0;exitDx=0;exitDy=0;" edge="1" parent="1" source="30yQaxvcxM4nG7VqYGFR-3" target="30yQaxvcxM4nG7VqYGFR-1">
          <mxGeometry relative="1" as="geometry" />
        </mxCell>
        <mxCell id="30yQaxvcxM4nG7VqYGFR-10" value="extends" style="edgeLabel;html=1;align=center;verticalAlign=middle;resizable=0;points=[];" vertex="1" connectable="0" parent="30yQaxvcxM4nG7VqYGFR-7">
          <mxGeometry x="-0.1831" y="1" relative="1" as="geometry">
            <mxPoint x="1" as="offset" />
          </mxGeometry>
        </mxCell>
        <mxCell id="30yQaxvcxM4nG7VqYGFR-8" style="edgeStyle=orthogonalEdgeStyle;rounded=0;orthogonalLoop=1;jettySize=auto;html=1;entryX=0.75;entryY=1;entryDx=0;entryDy=0;exitX=0.5;exitY=0;exitDx=0;exitDy=0;endArrow=block;endFill=0;" edge="1" parent="1" source="30yQaxvcxM4nG7VqYGFR-5" target="30yQaxvcxM4nG7VqYGFR-1">
          <mxGeometry relative="1" as="geometry" />
        </mxCell>
        <mxCell id="30yQaxvcxM4nG7VqYGFR-9" value="extends" style="edgeLabel;html=1;align=center;verticalAlign=middle;resizable=0;points=[];" vertex="1" connectable="0" parent="30yQaxvcxM4nG7VqYGFR-8">
          <mxGeometry x="-0.1417" relative="1" as="geometry">
            <mxPoint as="offset" />
          </mxGeometry>
        </mxCell>
        <mxCell id="30yQaxvcxM4nG7VqYGFR-82" style="edgeStyle=orthogonalEdgeStyle;rounded=0;orthogonalLoop=1;jettySize=auto;html=1;exitX=0;exitY=0.75;exitDx=0;exitDy=0;" edge="1" parent="1" source="30yQaxvcxM4nG7VqYGFR-72" target="30yQaxvcxM4nG7VqYGFR-1">
          <mxGeometry relative="1" as="geometry">
            <mxPoint x="240" y="-580" as="sourcePoint" />
            <Array as="points">
              <mxPoint x="210" y="-595" />
              <mxPoint x="210" y="50" />
            </Array>
          </mxGeometry>
        </mxCell>
        <mxCell id="30yQaxvcxM4nG7VqYGFR-84" value="is for" style="edgeLabel;html=1;align=center;verticalAlign=middle;resizable=0;points=[];" vertex="1" connectable="0" parent="30yQaxvcxM4nG7VqYGFR-82">
          <mxGeometry x="-0.6425" y="4" relative="1" as="geometry">
            <mxPoint y="1" as="offset" />
          </mxGeometry>
        </mxCell>
        <mxCell id="30yQaxvcxM4nG7VqYGFR-111" value="1" style="edgeLabel;html=1;align=center;verticalAlign=middle;resizable=0;points=[];" vertex="1" connectable="0" parent="30yQaxvcxM4nG7VqYGFR-82">
          <mxGeometry x="-0.9478" y="2" relative="1" as="geometry">
            <mxPoint as="offset" />
          </mxGeometry>
        </mxCell>
        <mxCell id="30yQaxvcxM4nG7VqYGFR-112" value="1" style="edgeLabel;html=1;align=center;verticalAlign=middle;resizable=0;points=[];" vertex="1" connectable="0" parent="30yQaxvcxM4nG7VqYGFR-82">
          <mxGeometry x="0.9169" y="1" relative="1" as="geometry">
            <mxPoint as="offset" />
          </mxGeometry>
        </mxCell>
        <mxCell id="30yQaxvcxM4nG7VqYGFR-1" value="&lt;span id=&quot;docs-internal-guid-3f319763-7fff-94b9-aead-58de4b7816bd&quot; style=&quot;font-size:12pt;font-family:Calibri,sans-serif;color:#000000;background-color:transparent;font-weight:700;font-style:normal;font-variant:normal;text-decoration:none;vertical-align:baseline;white-space:pre;white-space:pre-wrap;&quot;&gt;Item&lt;/span&gt;" style="swimlane;html=1;fontStyle=1;align=center;verticalAlign=top;childLayout=stackLayout;horizontal=1;startSize=26;horizontalStack=0;resizeParent=1;resizeLast=0;collapsible=1;marginBottom=0;swimlaneFillColor=#ffffff;rounded=1;shadow=0;comic=0;labelBackgroundColor=none;strokeWidth=1;fillColor=#e1d5e7;fontFamily=Verdana;fontSize=12;sketch=1;curveFitting=1;jiggle=2;strokeColor=#9673a6;" vertex="1" parent="1">
          <mxGeometry x="320" y="-20" width="160" height="100" as="geometry" />
        </mxCell>
        <mxCell id="30yQaxvcxM4nG7VqYGFR-2" value="&lt;div&gt;ItemID: Integer&lt;/div&gt;&lt;div&gt;Title: String&lt;/div&gt;&lt;div&gt;&lt;br&gt;&lt;/div&gt;" style="text;html=1;align=center;verticalAlign=middle;resizable=0;points=[];autosize=1;strokeColor=none;fillColor=none;" vertex="1" parent="30yQaxvcxM4nG7VqYGFR-1">
          <mxGeometry y="26" width="160" height="55" as="geometry" />
        </mxCell>
        <mxCell id="30yQaxvcxM4nG7VqYGFR-3" value="Lost Item" style="swimlane;html=1;fontStyle=1;align=center;verticalAlign=top;childLayout=stackLayout;horizontal=1;startSize=40;horizontalStack=0;resizeParent=1;resizeLast=0;collapsible=1;marginBottom=0;swimlaneFillColor=#ffffff;rounded=1;shadow=0;comic=0;labelBackgroundColor=none;strokeWidth=1;fillColor=#e1d5e7;fontFamily=Verdana;fontSize=12;sketch=1;curveFitting=1;jiggle=2;strokeColor=#9673a6;" vertex="1" parent="1">
          <mxGeometry x="123" y="190" width="197" height="80" as="geometry" />
        </mxCell>
        <mxCell id="30yQaxvcxM4nG7VqYGFR-4" value="Lost Item Owner Username: String" style="text;html=1;align=center;verticalAlign=middle;resizable=0;points=[];autosize=1;strokeColor=none;fillColor=none;" vertex="1" parent="30yQaxvcxM4nG7VqYGFR-3">
          <mxGeometry y="40" width="197" height="26" as="geometry" />
        </mxCell>
        <mxCell id="30yQaxvcxM4nG7VqYGFR-5" value="Found Item" style="swimlane;html=1;fontStyle=1;align=center;verticalAlign=top;childLayout=stackLayout;horizontal=1;startSize=50;horizontalStack=0;resizeParent=1;resizeLast=0;collapsible=1;marginBottom=0;swimlaneFillColor=#ffffff;rounded=1;shadow=0;comic=0;labelBackgroundColor=none;strokeWidth=1;fillColor=#e1d5e7;fontFamily=Verdana;fontSize=12;sketch=1;curveFitting=1;jiggle=2;strokeColor=#9673a6;" vertex="1" parent="1">
          <mxGeometry x="490" y="190" width="160" height="90" as="geometry" />
        </mxCell>
        <mxCell id="30yQaxvcxM4nG7VqYGFR-6" value="Finder Username: String" style="text;html=1;align=center;verticalAlign=middle;resizable=0;points=[];autosize=1;strokeColor=none;fillColor=none;" vertex="1" parent="30yQaxvcxM4nG7VqYGFR-5">
          <mxGeometry y="50" width="160" height="26" as="geometry" />
        </mxCell>
        <mxCell id="30yQaxvcxM4nG7VqYGFR-36" style="edgeStyle=orthogonalEdgeStyle;rounded=0;orthogonalLoop=1;jettySize=auto;html=1;entryX=1;entryY=0.25;entryDx=0;entryDy=0;" edge="1" parent="1" source="30yQaxvcxM4nG7VqYGFR-11" target="30yQaxvcxM4nG7VqYGFR-29">
          <mxGeometry relative="1" as="geometry">
            <Array as="points">
              <mxPoint x="902" y="420" />
              <mxPoint x="660" y="420" />
              <mxPoint x="660" y="490" />
            </Array>
          </mxGeometry>
        </mxCell>
        <mxCell id="30yQaxvcxM4nG7VqYGFR-37" value="drops item off" style="edgeLabel;html=1;align=center;verticalAlign=middle;resizable=0;points=[];" vertex="1" connectable="0" parent="30yQaxvcxM4nG7VqYGFR-36">
          <mxGeometry x="-0.022" y="-2" relative="1" as="geometry">
            <mxPoint x="-1" as="offset" />
          </mxGeometry>
        </mxCell>
        <mxCell id="30yQaxvcxM4nG7VqYGFR-138" value="1" style="edgeLabel;html=1;align=center;verticalAlign=middle;resizable=0;points=[];" vertex="1" connectable="0" parent="30yQaxvcxM4nG7VqYGFR-36">
          <mxGeometry x="-0.9328" y="-1" relative="1" as="geometry">
            <mxPoint as="offset" />
          </mxGeometry>
        </mxCell>
        <mxCell id="30yQaxvcxM4nG7VqYGFR-139" value="1" style="edgeLabel;html=1;align=center;verticalAlign=middle;resizable=0;points=[];" vertex="1" connectable="0" parent="30yQaxvcxM4nG7VqYGFR-36">
          <mxGeometry x="0.8605" y="1" relative="1" as="geometry">
            <mxPoint as="offset" />
          </mxGeometry>
        </mxCell>
        <mxCell id="30yQaxvcxM4nG7VqYGFR-46" style="edgeStyle=orthogonalEdgeStyle;rounded=0;orthogonalLoop=1;jettySize=auto;html=1;entryX=0.994;entryY=0.208;entryDx=0;entryDy=0;entryPerimeter=0;" edge="1" parent="1" source="30yQaxvcxM4nG7VqYGFR-11" target="30yQaxvcxM4nG7VqYGFR-39">
          <mxGeometry relative="1" as="geometry">
            <Array as="points">
              <mxPoint x="960" y="640" />
              <mxPoint x="710" y="640" />
              <mxPoint x="710" y="756" />
              <mxPoint x="530" y="756" />
              <mxPoint x="530" y="757" />
            </Array>
          </mxGeometry>
        </mxCell>
        <mxCell id="30yQaxvcxM4nG7VqYGFR-49" value="arranges" style="edgeLabel;html=1;align=center;verticalAlign=middle;resizable=0;points=[];" vertex="1" connectable="0" parent="30yQaxvcxM4nG7VqYGFR-46">
          <mxGeometry x="0.1433" y="1" relative="1" as="geometry">
            <mxPoint x="40" as="offset" />
          </mxGeometry>
        </mxCell>
        <mxCell id="30yQaxvcxM4nG7VqYGFR-140" value="1" style="edgeLabel;html=1;align=center;verticalAlign=middle;resizable=0;points=[];" vertex="1" connectable="0" parent="30yQaxvcxM4nG7VqYGFR-46">
          <mxGeometry x="-0.9605" relative="1" as="geometry">
            <mxPoint as="offset" />
          </mxGeometry>
        </mxCell>
        <mxCell id="30yQaxvcxM4nG7VqYGFR-141" value="1" style="edgeLabel;html=1;align=center;verticalAlign=middle;resizable=0;points=[];" vertex="1" connectable="0" parent="30yQaxvcxM4nG7VqYGFR-46">
          <mxGeometry x="0.933" y="-1" relative="1" as="geometry">
            <mxPoint as="offset" />
          </mxGeometry>
        </mxCell>
        <mxCell id="30yQaxvcxM4nG7VqYGFR-70" style="edgeStyle=orthogonalEdgeStyle;rounded=0;orthogonalLoop=1;jettySize=auto;html=1;entryX=1;entryY=0.5;entryDx=0;entryDy=0;" edge="1" parent="1" source="30yQaxvcxM4nG7VqYGFR-11" target="30yQaxvcxM4nG7VqYGFR-66">
          <mxGeometry relative="1" as="geometry">
            <Array as="points">
              <mxPoint x="1060" y="234" />
              <mxPoint x="1060" y="544" />
            </Array>
          </mxGeometry>
        </mxCell>
        <mxCell id="30yQaxvcxM4nG7VqYGFR-71" value="posts" style="edgeLabel;html=1;align=center;verticalAlign=middle;resizable=0;points=[];" vertex="1" connectable="0" parent="30yQaxvcxM4nG7VqYGFR-70">
          <mxGeometry x="-0.1526" relative="1" as="geometry">
            <mxPoint y="1" as="offset" />
          </mxGeometry>
        </mxCell>
        <mxCell id="30yQaxvcxM4nG7VqYGFR-128" value="1" style="edgeLabel;html=1;align=center;verticalAlign=middle;resizable=0;points=[];" vertex="1" connectable="0" parent="30yQaxvcxM4nG7VqYGFR-70">
          <mxGeometry x="-0.9362" relative="1" as="geometry">
            <mxPoint y="1" as="offset" />
          </mxGeometry>
        </mxCell>
        <mxCell id="30yQaxvcxM4nG7VqYGFR-129" value="1..*" style="edgeLabel;html=1;align=center;verticalAlign=middle;resizable=0;points=[];" vertex="1" connectable="0" parent="30yQaxvcxM4nG7VqYGFR-70">
          <mxGeometry x="0.817" y="1" relative="1" as="geometry">
            <mxPoint as="offset" />
          </mxGeometry>
        </mxCell>
        <mxCell id="30yQaxvcxM4nG7VqYGFR-107" style="edgeStyle=orthogonalEdgeStyle;rounded=0;orthogonalLoop=1;jettySize=auto;html=1;entryX=1;entryY=0.25;entryDx=0;entryDy=0;" edge="1" parent="1" source="30yQaxvcxM4nG7VqYGFR-11" target="30yQaxvcxM4nG7VqYGFR-104">
          <mxGeometry relative="1" as="geometry">
            <Array as="points">
              <mxPoint x="1000" y="1027" />
            </Array>
          </mxGeometry>
        </mxCell>
        <mxCell id="30yQaxvcxM4nG7VqYGFR-108" value="makes" style="edgeLabel;html=1;align=center;verticalAlign=middle;resizable=0;points=[];" vertex="1" connectable="0" parent="30yQaxvcxM4nG7VqYGFR-107">
          <mxGeometry x="0.6111" y="1" relative="1" as="geometry">
            <mxPoint as="offset" />
          </mxGeometry>
        </mxCell>
        <mxCell id="30yQaxvcxM4nG7VqYGFR-145" value="0..*" style="edgeLabel;html=1;align=center;verticalAlign=middle;resizable=0;points=[];" vertex="1" connectable="0" parent="30yQaxvcxM4nG7VqYGFR-107">
          <mxGeometry x="0.9272" y="1" relative="1" as="geometry">
            <mxPoint x="1" as="offset" />
          </mxGeometry>
        </mxCell>
        <mxCell id="30yQaxvcxM4nG7VqYGFR-147" value="1" style="edgeLabel;html=1;align=center;verticalAlign=middle;resizable=0;points=[];" vertex="1" connectable="0" parent="30yQaxvcxM4nG7VqYGFR-107">
          <mxGeometry x="-0.9702" relative="1" as="geometry">
            <mxPoint as="offset" />
          </mxGeometry>
        </mxCell>
        <mxCell id="30yQaxvcxM4nG7VqYGFR-11" value="&lt;span id=&quot;docs-internal-guid-a88b9b18-7fff-cebd-dcaf-61405e9e3261&quot; style=&quot;font-size:12pt;font-family:Calibri,sans-serif;color:#000000;background-color:transparent;font-weight:700;font-style:normal;font-variant:normal;text-decoration:none;vertical-align:baseline;white-space:pre;white-space:pre-wrap;&quot;&gt;Finder&lt;/span&gt;" style="swimlane;html=1;fontStyle=1;align=center;verticalAlign=top;childLayout=stackLayout;horizontal=1;startSize=50;horizontalStack=0;resizeParent=1;resizeLast=0;collapsible=1;marginBottom=0;swimlaneFillColor=#ffffff;rounded=1;shadow=0;comic=0;labelBackgroundColor=none;strokeWidth=1;fillColor=#e1d5e7;fontFamily=Verdana;fontSize=12;sketch=1;curveFitting=1;jiggle=2;strokeColor=#9673a6;" vertex="1" parent="1">
          <mxGeometry x="820" y="190" width="205" height="87" as="geometry" />
        </mxCell>
        <mxCell id="30yQaxvcxM4nG7VqYGFR-13" style="edgeStyle=orthogonalEdgeStyle;rounded=0;orthogonalLoop=1;jettySize=auto;html=1;entryX=0;entryY=0.25;entryDx=0;entryDy=0;" edge="1" parent="1" source="30yQaxvcxM4nG7VqYGFR-12" target="30yQaxvcxM4nG7VqYGFR-3">
          <mxGeometry relative="1" as="geometry" />
        </mxCell>
        <mxCell id="30yQaxvcxM4nG7VqYGFR-14" value="lost by" style="edgeLabel;html=1;align=center;verticalAlign=middle;resizable=0;points=[];" vertex="1" connectable="0" parent="30yQaxvcxM4nG7VqYGFR-13">
          <mxGeometry x="-0.5778" y="-1" relative="1" as="geometry">
            <mxPoint x="12" y="-1" as="offset" />
          </mxGeometry>
        </mxCell>
        <mxCell id="30yQaxvcxM4nG7VqYGFR-132" value="1" style="edgeLabel;html=1;align=center;verticalAlign=middle;resizable=0;points=[];" vertex="1" connectable="0" parent="30yQaxvcxM4nG7VqYGFR-13">
          <mxGeometry x="-0.8778" y="-1" relative="1" as="geometry">
            <mxPoint as="offset" />
          </mxGeometry>
        </mxCell>
        <mxCell id="30yQaxvcxM4nG7VqYGFR-133" value="1..*" style="edgeLabel;html=1;align=center;verticalAlign=middle;resizable=0;points=[];" vertex="1" connectable="0" parent="30yQaxvcxM4nG7VqYGFR-13">
          <mxGeometry x="0.7222" y="-1" relative="1" as="geometry">
            <mxPoint as="offset" />
          </mxGeometry>
        </mxCell>
        <mxCell id="30yQaxvcxM4nG7VqYGFR-35" style="edgeStyle=orthogonalEdgeStyle;rounded=0;orthogonalLoop=1;jettySize=auto;html=1;entryX=0;entryY=0.25;entryDx=0;entryDy=0;" edge="1" parent="1" source="30yQaxvcxM4nG7VqYGFR-12" target="30yQaxvcxM4nG7VqYGFR-29">
          <mxGeometry relative="1" as="geometry">
            <Array as="points">
              <mxPoint x="-130" y="420" />
              <mxPoint x="130" y="420" />
              <mxPoint x="130" y="490" />
            </Array>
          </mxGeometry>
        </mxCell>
        <mxCell id="30yQaxvcxM4nG7VqYGFR-38" value="picks item up" style="edgeLabel;html=1;align=center;verticalAlign=middle;resizable=0;points=[];" vertex="1" connectable="0" parent="30yQaxvcxM4nG7VqYGFR-35">
          <mxGeometry x="-0.2516" relative="1" as="geometry">
            <mxPoint as="offset" />
          </mxGeometry>
        </mxCell>
        <mxCell id="30yQaxvcxM4nG7VqYGFR-136" value="1" style="edgeLabel;html=1;align=center;verticalAlign=middle;resizable=0;points=[];" vertex="1" connectable="0" parent="30yQaxvcxM4nG7VqYGFR-35">
          <mxGeometry x="-0.9362" y="-2" relative="1" as="geometry">
            <mxPoint as="offset" />
          </mxGeometry>
        </mxCell>
        <mxCell id="30yQaxvcxM4nG7VqYGFR-137" value="1" style="edgeLabel;html=1;align=center;verticalAlign=middle;resizable=0;points=[];" vertex="1" connectable="0" parent="30yQaxvcxM4nG7VqYGFR-35">
          <mxGeometry x="0.8674" y="-1" relative="1" as="geometry">
            <mxPoint x="1" y="1" as="offset" />
          </mxGeometry>
        </mxCell>
        <mxCell id="30yQaxvcxM4nG7VqYGFR-68" style="edgeStyle=orthogonalEdgeStyle;rounded=0;orthogonalLoop=1;jettySize=auto;html=1;entryX=0;entryY=0.5;entryDx=0;entryDy=0;" edge="1" parent="1" source="30yQaxvcxM4nG7VqYGFR-12" target="30yQaxvcxM4nG7VqYGFR-64">
          <mxGeometry relative="1" as="geometry">
            <Array as="points">
              <mxPoint x="-260" y="247" />
              <mxPoint x="-260" y="544" />
            </Array>
          </mxGeometry>
        </mxCell>
        <mxCell id="30yQaxvcxM4nG7VqYGFR-69" value="posts" style="edgeLabel;html=1;align=center;verticalAlign=middle;resizable=0;points=[];" vertex="1" connectable="0" parent="30yQaxvcxM4nG7VqYGFR-68">
          <mxGeometry x="-0.1748" y="-3" relative="1" as="geometry">
            <mxPoint as="offset" />
          </mxGeometry>
        </mxCell>
        <mxCell id="30yQaxvcxM4nG7VqYGFR-134" value="1" style="edgeLabel;html=1;align=center;verticalAlign=middle;resizable=0;points=[];" vertex="1" connectable="0" parent="30yQaxvcxM4nG7VqYGFR-68">
          <mxGeometry x="-0.9437" y="2" relative="1" as="geometry">
            <mxPoint as="offset" />
          </mxGeometry>
        </mxCell>
        <mxCell id="30yQaxvcxM4nG7VqYGFR-135" value="1..*" style="edgeLabel;html=1;align=center;verticalAlign=middle;resizable=0;points=[];" vertex="1" connectable="0" parent="30yQaxvcxM4nG7VqYGFR-68">
          <mxGeometry x="0.789" y="-1" relative="1" as="geometry">
            <mxPoint y="1" as="offset" />
          </mxGeometry>
        </mxCell>
        <mxCell id="30yQaxvcxM4nG7VqYGFR-106" style="edgeStyle=orthogonalEdgeStyle;rounded=0;orthogonalLoop=1;jettySize=auto;html=1;entryX=0;entryY=0.25;entryDx=0;entryDy=0;" edge="1" parent="1" source="30yQaxvcxM4nG7VqYGFR-12" target="30yQaxvcxM4nG7VqYGFR-104">
          <mxGeometry relative="1" as="geometry">
            <Array as="points">
              <mxPoint x="-210" y="1027" />
            </Array>
          </mxGeometry>
        </mxCell>
        <mxCell id="30yQaxvcxM4nG7VqYGFR-110" value="makes" style="edgeLabel;html=1;align=center;verticalAlign=middle;resizable=0;points=[];" vertex="1" connectable="0" parent="30yQaxvcxM4nG7VqYGFR-106">
          <mxGeometry x="0.5721" y="-1" relative="1" as="geometry">
            <mxPoint x="1" as="offset" />
          </mxGeometry>
        </mxCell>
        <mxCell id="30yQaxvcxM4nG7VqYGFR-144" value="0..*" style="edgeLabel;html=1;align=center;verticalAlign=middle;resizable=0;points=[];" vertex="1" connectable="0" parent="30yQaxvcxM4nG7VqYGFR-106">
          <mxGeometry x="0.9198" y="-1" relative="1" as="geometry">
            <mxPoint y="1" as="offset" />
          </mxGeometry>
        </mxCell>
        <mxCell id="30yQaxvcxM4nG7VqYGFR-146" value="1" style="edgeLabel;html=1;align=center;verticalAlign=middle;resizable=0;points=[];" vertex="1" connectable="0" parent="30yQaxvcxM4nG7VqYGFR-106">
          <mxGeometry x="-0.9632" y="-3" relative="1" as="geometry">
            <mxPoint as="offset" />
          </mxGeometry>
        </mxCell>
        <mxCell id="30yQaxvcxM4nG7VqYGFR-12" value="&lt;div align=&quot;center&quot;&gt;&lt;font style=&quot;font-size: 16px;&quot;&gt;&lt;span id=&quot;docs-internal-guid-7b11c67e-7fff-f666-aebd-7296b2d91ea7&quot; style=&quot;font-family: Calibri, sans-serif; color: rgb(0, 0, 0); background-color: transparent; font-weight: 700; font-style: normal; font-variant: normal; text-decoration: none; vertical-align: baseline; white-space: pre-wrap;&quot;&gt;Lost Item Owner&lt;/span&gt;&lt;/font&gt;&lt;/div&gt;" style="swimlane;html=1;fontStyle=1;align=center;verticalAlign=top;childLayout=stackLayout;horizontal=1;startSize=66;horizontalStack=0;resizeParent=1;resizeLast=0;collapsible=1;marginBottom=0;swimlaneFillColor=#ffffff;rounded=1;shadow=0;comic=0;labelBackgroundColor=none;strokeWidth=1;fillColor=#e1d5e7;fontFamily=Verdana;fontSize=12;sketch=1;curveFitting=1;jiggle=2;strokeColor=#9673a6;" vertex="1" parent="1">
          <mxGeometry x="-240" y="190" width="220" height="114" as="geometry" />
        </mxCell>
        <mxCell id="30yQaxvcxM4nG7VqYGFR-15" style="edgeStyle=orthogonalEdgeStyle;rounded=0;orthogonalLoop=1;jettySize=auto;html=1;entryX=1.005;entryY=0.16;entryDx=0;entryDy=0;entryPerimeter=0;" edge="1" parent="1" source="30yQaxvcxM4nG7VqYGFR-11" target="30yQaxvcxM4nG7VqYGFR-5">
          <mxGeometry relative="1" as="geometry" />
        </mxCell>
        <mxCell id="30yQaxvcxM4nG7VqYGFR-17" value="found by" style="edgeLabel;html=1;align=center;verticalAlign=middle;resizable=0;points=[];" vertex="1" connectable="0" parent="30yQaxvcxM4nG7VqYGFR-15">
          <mxGeometry x="-0.5951" relative="1" as="geometry">
            <mxPoint x="-20" as="offset" />
          </mxGeometry>
        </mxCell>
        <mxCell id="30yQaxvcxM4nG7VqYGFR-130" value="1" style="edgeLabel;html=1;align=center;verticalAlign=middle;resizable=0;points=[];" vertex="1" connectable="0" parent="30yQaxvcxM4nG7VqYGFR-15">
          <mxGeometry x="-0.8084" relative="1" as="geometry">
            <mxPoint as="offset" />
          </mxGeometry>
        </mxCell>
        <mxCell id="30yQaxvcxM4nG7VqYGFR-131" value="1..*" style="edgeLabel;html=1;align=center;verticalAlign=middle;resizable=0;points=[];" vertex="1" connectable="0" parent="30yQaxvcxM4nG7VqYGFR-15">
          <mxGeometry x="0.7458" relative="1" as="geometry">
            <mxPoint as="offset" />
          </mxGeometry>
        </mxCell>
        <mxCell id="30yQaxvcxM4nG7VqYGFR-91" style="edgeStyle=orthogonalEdgeStyle;rounded=0;orthogonalLoop=1;jettySize=auto;html=1;entryX=-0.005;entryY=0.407;entryDx=0;entryDy=0;entryPerimeter=0;" edge="1" parent="1" source="30yQaxvcxM4nG7VqYGFR-18" target="30yQaxvcxM4nG7VqYGFR-86">
          <mxGeometry relative="1" as="geometry">
            <Array as="points">
              <mxPoint x="888" y="-450" />
              <mxPoint x="888" y="-480" />
            </Array>
          </mxGeometry>
        </mxCell>
        <mxCell id="30yQaxvcxM4nG7VqYGFR-92" value="gets" style="edgeLabel;html=1;align=center;verticalAlign=middle;resizable=0;points=[];" vertex="1" connectable="0" parent="30yQaxvcxM4nG7VqYGFR-91">
          <mxGeometry x="0.2836" y="4" relative="1" as="geometry">
            <mxPoint x="1" as="offset" />
          </mxGeometry>
        </mxCell>
        <mxCell id="30yQaxvcxM4nG7VqYGFR-121" value="1" style="edgeLabel;html=1;align=center;verticalAlign=middle;resizable=0;points=[];" vertex="1" connectable="0" parent="30yQaxvcxM4nG7VqYGFR-91">
          <mxGeometry x="-0.9386" relative="1" as="geometry">
            <mxPoint x="1" as="offset" />
          </mxGeometry>
        </mxCell>
        <mxCell id="30yQaxvcxM4nG7VqYGFR-122" value="0..*" style="edgeLabel;html=1;align=center;verticalAlign=middle;resizable=0;points=[];" vertex="1" connectable="0" parent="30yQaxvcxM4nG7VqYGFR-91">
          <mxGeometry x="0.85" y="-3" relative="1" as="geometry">
            <mxPoint x="22" as="offset" />
          </mxGeometry>
        </mxCell>
        <mxCell id="30yQaxvcxM4nG7VqYGFR-18" value="User" style="swimlane;html=1;fontStyle=1;align=center;verticalAlign=top;childLayout=stackLayout;horizontal=1;startSize=26;horizontalStack=0;resizeParent=1;resizeLast=0;collapsible=1;marginBottom=0;swimlaneFillColor=#ffffff;rounded=1;shadow=0;comic=0;labelBackgroundColor=none;strokeWidth=1;fillColor=#e1d5e7;fontFamily=Verdana;fontSize=12;sketch=1;curveFitting=1;jiggle=2;strokeColor=#9673a6;" vertex="1" parent="1">
          <mxGeometry x="234.5" y="-490" width="331" height="196" as="geometry" />
        </mxCell>
        <mxCell id="30yQaxvcxM4nG7VqYGFR-19" value="&lt;div align=&quot;center&quot;&gt;Username: String&lt;/div&gt;&lt;div align=&quot;center&quot;&gt;Password: String&lt;/div&gt;&lt;div align=&quot;center&quot;&gt;&amp;nbsp; UserType: Enum (Individual, Business Owner, Moderator)&lt;/div&gt;&lt;div align=&quot;center&quot;&gt;First Name: String&lt;/div&gt;&lt;div align=&quot;center&quot;&gt;Last Name: String&lt;/div&gt;&lt;div align=&quot;center&quot;&gt;Email: String&lt;/div&gt;&lt;div align=&quot;center&quot;&gt;Contact Number:String&lt;/div&gt;&lt;div align=&quot;center&quot;&gt;Verified: Boolean &lt;br&gt;&lt;/div&gt;&lt;div align=&quot;center&quot;&gt;Ratings: Double&lt;/div&gt;&lt;div&gt;&lt;div align=&quot;left&quot;&gt;&lt;br&gt;&lt;/div&gt;&lt;br&gt;&lt;/div&gt;" style="text;html=1;align=left;verticalAlign=middle;resizable=0;points=[];autosize=1;strokeColor=none;fillColor=none;" vertex="1" parent="30yQaxvcxM4nG7VqYGFR-18">
          <mxGeometry y="26" width="331" height="170" as="geometry" />
        </mxCell>
        <mxCell id="30yQaxvcxM4nG7VqYGFR-20" style="edgeStyle=orthogonalEdgeStyle;rounded=0;orthogonalLoop=1;jettySize=auto;html=1;endArrow=block;endFill=0;exitX=0.5;exitY=0;exitDx=0;exitDy=0;entryX=0.086;entryY=1.013;entryDx=0;entryDy=0;entryPerimeter=0;" edge="1" parent="1" source="30yQaxvcxM4nG7VqYGFR-12" target="30yQaxvcxM4nG7VqYGFR-19">
          <mxGeometry relative="1" as="geometry" />
        </mxCell>
        <mxCell id="30yQaxvcxM4nG7VqYGFR-24" value="extends" style="edgeLabel;html=1;align=center;verticalAlign=middle;resizable=0;points=[];" vertex="1" connectable="0" parent="30yQaxvcxM4nG7VqYGFR-20">
          <mxGeometry x="0.065" y="-4" relative="1" as="geometry">
            <mxPoint as="offset" />
          </mxGeometry>
        </mxCell>
        <mxCell id="30yQaxvcxM4nG7VqYGFR-22" style="edgeStyle=orthogonalEdgeStyle;rounded=0;orthogonalLoop=1;jettySize=auto;html=1;exitX=0.5;exitY=0;exitDx=0;exitDy=0;entryX=0.893;entryY=1.018;entryDx=0;entryDy=0;entryPerimeter=0;endArrow=block;endFill=0;" edge="1" parent="1" source="30yQaxvcxM4nG7VqYGFR-11" target="30yQaxvcxM4nG7VqYGFR-19">
          <mxGeometry relative="1" as="geometry" />
        </mxCell>
        <mxCell id="30yQaxvcxM4nG7VqYGFR-23" value="extends" style="edgeLabel;html=1;align=center;verticalAlign=middle;resizable=0;points=[];" vertex="1" connectable="0" parent="30yQaxvcxM4nG7VqYGFR-22">
          <mxGeometry x="0.038" y="2" relative="1" as="geometry">
            <mxPoint x="1" as="offset" />
          </mxGeometry>
        </mxCell>
        <mxCell id="30yQaxvcxM4nG7VqYGFR-25" value="&lt;div&gt;&lt;span id=&quot;docs-internal-guid-55cd896a-7fff-4ad1-102f-66eb74480d65&quot; style=&quot;font-size: 12pt; font-family: Calibri, sans-serif; color: rgb(0, 0, 0); background-color: transparent; font-weight: 700; font-style: normal; font-variant: normal; text-decoration: none; vertical-align: baseline; white-space: pre-wrap;&quot;&gt;Local Business Owner&lt;/span&gt;&lt;/div&gt;&lt;div&gt;&lt;span id=&quot;docs-internal-guid-55cd896a-7fff-4ad1-102f-66eb74480d65&quot; style=&quot;font-size: 12pt; font-family: Calibri, sans-serif; color: rgb(0, 0, 0); background-color: transparent; font-weight: 700; font-style: normal; font-variant: normal; text-decoration: none; vertical-align: baseline; white-space: pre-wrap;&quot;&gt;&lt;span style=&quot;white-space: pre;&quot;&gt;&#x9;&lt;/span&gt;&lt;span style=&quot;white-space: pre;&quot;&gt;&#x9;&lt;/span&gt;&lt;br&gt;&lt;/span&gt;&lt;/div&gt;" style="swimlane;html=1;fontStyle=1;align=center;verticalAlign=top;childLayout=stackLayout;horizontal=1;startSize=66;horizontalStack=0;resizeParent=1;resizeLast=0;collapsible=1;marginBottom=0;swimlaneFillColor=#ffffff;rounded=1;shadow=0;comic=0;labelBackgroundColor=none;strokeWidth=1;fillColor=#e1d5e7;fontFamily=Verdana;fontSize=12;sketch=1;curveFitting=1;jiggle=2;strokeColor=#9673a6;" vertex="1" parent="1">
          <mxGeometry x="-240" y="-280" width="231" height="144" as="geometry" />
        </mxCell>
        <mxCell id="30yQaxvcxM4nG7VqYGFR-26" value="&lt;br&gt;&lt;div&gt;Business ID: Integer&lt;/div&gt;&lt;div&gt;&amp;nbsp;&lt;br&gt;&lt;/div&gt;&lt;div&gt;&lt;br&gt;&lt;/div&gt;" style="text;html=1;align=center;verticalAlign=middle;resizable=0;points=[];autosize=1;strokeColor=none;fillColor=none;" vertex="1" parent="30yQaxvcxM4nG7VqYGFR-25">
          <mxGeometry y="66" width="231" height="70" as="geometry" />
        </mxCell>
        <mxCell id="30yQaxvcxM4nG7VqYGFR-27" style="edgeStyle=orthogonalEdgeStyle;rounded=0;orthogonalLoop=1;jettySize=auto;html=1;exitX=1.018;exitY=0.386;exitDx=0;exitDy=0;exitPerimeter=0;endArrow=block;endFill=0;entryX=-0.001;entryY=0.858;entryDx=0;entryDy=0;entryPerimeter=0;" edge="1" parent="1" source="30yQaxvcxM4nG7VqYGFR-25" target="30yQaxvcxM4nG7VqYGFR-19">
          <mxGeometry relative="1" as="geometry" />
        </mxCell>
        <mxCell id="30yQaxvcxM4nG7VqYGFR-28" value="extends" style="edgeLabel;html=1;align=center;verticalAlign=middle;resizable=0;points=[];" vertex="1" connectable="0" parent="30yQaxvcxM4nG7VqYGFR-27">
          <mxGeometry x="-0.5091" y="-3" relative="1" as="geometry">
            <mxPoint as="offset" />
          </mxGeometry>
        </mxCell>
        <mxCell id="30yQaxvcxM4nG7VqYGFR-29" value="&lt;span id=&quot;docs-internal-guid-14b84c08-7fff-37eb-8898-61c19f886141&quot; style=&quot;font-size:12pt;font-family:Calibri,sans-serif;color:#000000;background-color:transparent;font-weight:700;font-style:normal;font-variant:normal;text-decoration:none;vertical-align:baseline;white-space:pre;white-space:pre-wrap;&quot;&gt;Local Business&lt;/span&gt;" style="swimlane;html=1;fontStyle=1;align=center;verticalAlign=top;childLayout=stackLayout;horizontal=1;startSize=50;horizontalStack=0;resizeParent=1;resizeLast=0;collapsible=1;marginBottom=0;swimlaneFillColor=#ffffff;rounded=1;shadow=0;comic=0;labelBackgroundColor=none;strokeWidth=1;fillColor=#e1d5e7;fontFamily=Verdana;fontSize=12;sketch=1;curveFitting=1;jiggle=2;strokeColor=#9673a6;" vertex="1" parent="1">
          <mxGeometry x="280.5" y="450" width="239" height="158" as="geometry" />
        </mxCell>
        <mxCell id="30yQaxvcxM4nG7VqYGFR-30" value="&lt;div&gt;Business ID: Integer&lt;/div&gt;&lt;div&gt;Business Name: String&lt;/div&gt;&lt;div&gt;Location: String&lt;/div&gt;&lt;div&gt;Num of Successful Meetings: Integer&lt;/div&gt;" style="text;html=1;align=center;verticalAlign=middle;resizable=0;points=[];autosize=1;strokeColor=none;fillColor=none;" vertex="1" parent="30yQaxvcxM4nG7VqYGFR-29">
          <mxGeometry y="50" width="239" height="70" as="geometry" />
        </mxCell>
        <mxCell id="30yQaxvcxM4nG7VqYGFR-32" style="edgeStyle=orthogonalEdgeStyle;rounded=0;orthogonalLoop=1;jettySize=auto;html=1;entryX=0.5;entryY=0;entryDx=0;entryDy=0;" edge="1" parent="1" source="30yQaxvcxM4nG7VqYGFR-26" target="30yQaxvcxM4nG7VqYGFR-29">
          <mxGeometry relative="1" as="geometry">
            <Array as="points">
              <mxPoint x="-170" y="170" />
              <mxPoint x="400" y="170" />
            </Array>
          </mxGeometry>
        </mxCell>
        <mxCell id="30yQaxvcxM4nG7VqYGFR-63" value="owns" style="edgeLabel;html=1;align=center;verticalAlign=middle;resizable=0;points=[];" vertex="1" connectable="0" parent="30yQaxvcxM4nG7VqYGFR-32">
          <mxGeometry x="-0.1094" y="3" relative="1" as="geometry">
            <mxPoint as="offset" />
          </mxGeometry>
        </mxCell>
        <mxCell id="30yQaxvcxM4nG7VqYGFR-43" style="edgeStyle=orthogonalEdgeStyle;rounded=0;orthogonalLoop=1;jettySize=auto;html=1;entryX=0.5;entryY=1;entryDx=0;entryDy=0;" edge="1" parent="1" source="30yQaxvcxM4nG7VqYGFR-39" target="30yQaxvcxM4nG7VqYGFR-29">
          <mxGeometry relative="1" as="geometry" />
        </mxCell>
        <mxCell id="30yQaxvcxM4nG7VqYGFR-44" value="happens at" style="edgeLabel;html=1;align=center;verticalAlign=middle;resizable=0;points=[];" vertex="1" connectable="0" parent="30yQaxvcxM4nG7VqYGFR-43">
          <mxGeometry x="-0.0328" y="4" relative="1" as="geometry">
            <mxPoint as="offset" />
          </mxGeometry>
        </mxCell>
        <object label="Meeting" id="30yQaxvcxM4nG7VqYGFR-39">
          <mxCell style="swimlane;html=1;fontStyle=1;align=center;verticalAlign=top;childLayout=stackLayout;horizontal=1;startSize=26;horizontalStack=0;resizeParent=1;resizeLast=0;collapsible=1;marginBottom=0;swimlaneFillColor=#ffffff;rounded=1;shadow=0;comic=0;labelBackgroundColor=none;strokeWidth=1;fillColor=#e1d5e7;fontFamily=Verdana;fontSize=12;sketch=1;curveFitting=1;jiggle=2;strokeColor=#9673a6;" vertex="1" parent="1">
            <mxGeometry x="275" y="730" width="255" height="130" as="geometry" />
          </mxCell>
        </object>
        <mxCell id="30yQaxvcxM4nG7VqYGFR-40" value="&lt;div&gt;Location: String&lt;/div&gt;&lt;div&gt;Time: String&lt;/div&gt;&lt;div&gt;Date: String&lt;/div&gt;&lt;div&gt;Status: Enum (Cancelled, Scheduled, Done)&lt;/div&gt;" style="text;html=1;align=center;verticalAlign=middle;resizable=0;points=[];autosize=1;strokeColor=none;fillColor=none;" vertex="1" parent="30yQaxvcxM4nG7VqYGFR-39">
          <mxGeometry y="26" width="255" height="70" as="geometry" />
        </mxCell>
        <mxCell id="30yQaxvcxM4nG7VqYGFR-47" style="edgeStyle=orthogonalEdgeStyle;rounded=0;orthogonalLoop=1;jettySize=auto;html=1;entryX=0.005;entryY=0.049;entryDx=0;entryDy=0;entryPerimeter=0;" edge="1" parent="1" target="30yQaxvcxM4nG7VqYGFR-40">
          <mxGeometry relative="1" as="geometry">
            <mxPoint x="-200.5" y="304" as="sourcePoint" />
            <mxPoint x="270" y="756" as="targetPoint" />
            <Array as="points">
              <mxPoint x="-180" y="304" />
              <mxPoint x="-180" y="637" />
              <mxPoint x="98" y="637" />
              <mxPoint x="98" y="756" />
              <mxPoint x="270" y="756" />
              <mxPoint x="270" y="759" />
            </Array>
          </mxGeometry>
        </mxCell>
        <mxCell id="30yQaxvcxM4nG7VqYGFR-48" value="arranges" style="edgeLabel;html=1;align=center;verticalAlign=middle;resizable=0;points=[];" vertex="1" connectable="0" parent="30yQaxvcxM4nG7VqYGFR-47">
          <mxGeometry x="-0.078" y="-3" relative="1" as="geometry">
            <mxPoint as="offset" />
          </mxGeometry>
        </mxCell>
        <mxCell id="30yQaxvcxM4nG7VqYGFR-142" value="1" style="edgeLabel;html=1;align=center;verticalAlign=middle;resizable=0;points=[];" vertex="1" connectable="0" parent="30yQaxvcxM4nG7VqYGFR-47">
          <mxGeometry x="0.9235" y="-1" relative="1" as="geometry">
            <mxPoint as="offset" />
          </mxGeometry>
        </mxCell>
        <mxCell id="30yQaxvcxM4nG7VqYGFR-143" value="1" style="edgeLabel;html=1;align=center;verticalAlign=middle;resizable=0;points=[];" vertex="1" connectable="0" parent="30yQaxvcxM4nG7VqYGFR-47">
          <mxGeometry x="-0.8981" y="-1" relative="1" as="geometry">
            <mxPoint y="1" as="offset" />
          </mxGeometry>
        </mxCell>
        <mxCell id="30yQaxvcxM4nG7VqYGFR-59" style="edgeStyle=orthogonalEdgeStyle;rounded=0;orthogonalLoop=1;jettySize=auto;html=1;entryX=0.75;entryY=0;entryDx=0;entryDy=0;" edge="1" parent="1" source="30yQaxvcxM4nG7VqYGFR-50" target="30yQaxvcxM4nG7VqYGFR-12">
          <mxGeometry relative="1" as="geometry">
            <Array as="points">
              <mxPoint x="290" y="-135" />
              <mxPoint x="290" y="20" />
              <mxPoint x="-75" y="20" />
            </Array>
          </mxGeometry>
        </mxCell>
        <mxCell id="30yQaxvcxM4nG7VqYGFR-60" value="checks" style="edgeLabel;html=1;align=center;verticalAlign=middle;resizable=0;points=[];" vertex="1" connectable="0" parent="30yQaxvcxM4nG7VqYGFR-59">
          <mxGeometry x="-0.0498" y="-2" relative="1" as="geometry">
            <mxPoint x="1" as="offset" />
          </mxGeometry>
        </mxCell>
        <mxCell id="30yQaxvcxM4nG7VqYGFR-117" value="1" style="edgeLabel;html=1;align=center;verticalAlign=middle;resizable=0;points=[];" vertex="1" connectable="0" parent="30yQaxvcxM4nG7VqYGFR-59">
          <mxGeometry x="-0.8667" relative="1" as="geometry">
            <mxPoint as="offset" />
          </mxGeometry>
        </mxCell>
        <mxCell id="30yQaxvcxM4nG7VqYGFR-118" value="0..*" style="edgeLabel;html=1;align=center;verticalAlign=middle;resizable=0;points=[];" vertex="1" connectable="0" parent="30yQaxvcxM4nG7VqYGFR-59">
          <mxGeometry x="0.9056" relative="1" as="geometry">
            <mxPoint as="offset" />
          </mxGeometry>
        </mxCell>
        <mxCell id="30yQaxvcxM4nG7VqYGFR-61" style="edgeStyle=orthogonalEdgeStyle;rounded=0;orthogonalLoop=1;jettySize=auto;html=1;entryX=0.25;entryY=0;entryDx=0;entryDy=0;" edge="1" parent="1" source="30yQaxvcxM4nG7VqYGFR-50" target="30yQaxvcxM4nG7VqYGFR-11">
          <mxGeometry relative="1" as="geometry">
            <mxPoint x="860" y="190" as="targetPoint" />
            <Array as="points">
              <mxPoint x="500" y="-135" />
              <mxPoint x="500" y="20" />
              <mxPoint x="871" y="20" />
            </Array>
          </mxGeometry>
        </mxCell>
        <mxCell id="30yQaxvcxM4nG7VqYGFR-62" value="checks" style="edgeLabel;html=1;align=center;verticalAlign=middle;resizable=0;points=[];" vertex="1" connectable="0" parent="30yQaxvcxM4nG7VqYGFR-61">
          <mxGeometry x="-0.1802" y="-2" relative="1" as="geometry">
            <mxPoint as="offset" />
          </mxGeometry>
        </mxCell>
        <mxCell id="30yQaxvcxM4nG7VqYGFR-115" value="1" style="edgeLabel;html=1;align=center;verticalAlign=middle;resizable=0;points=[];" vertex="1" connectable="0" parent="30yQaxvcxM4nG7VqYGFR-61">
          <mxGeometry x="-0.9051" relative="1" as="geometry">
            <mxPoint as="offset" />
          </mxGeometry>
        </mxCell>
        <mxCell id="30yQaxvcxM4nG7VqYGFR-116" value="0..*" style="edgeLabel;html=1;align=center;verticalAlign=middle;resizable=0;points=[];" vertex="1" connectable="0" parent="30yQaxvcxM4nG7VqYGFR-61">
          <mxGeometry x="0.9134" y="-2" relative="1" as="geometry">
            <mxPoint as="offset" />
          </mxGeometry>
        </mxCell>
        <mxCell id="30yQaxvcxM4nG7VqYGFR-80" style="edgeStyle=orthogonalEdgeStyle;rounded=0;orthogonalLoop=1;jettySize=auto;html=1;entryX=1;entryY=0.75;entryDx=0;entryDy=0;" edge="1" parent="1" source="30yQaxvcxM4nG7VqYGFR-50" target="30yQaxvcxM4nG7VqYGFR-72">
          <mxGeometry relative="1" as="geometry">
            <mxPoint x="502" y="-580" as="targetPoint" />
            <Array as="points">
              <mxPoint x="690" y="-150" />
              <mxPoint x="690" y="-595" />
            </Array>
          </mxGeometry>
        </mxCell>
        <mxCell id="30yQaxvcxM4nG7VqYGFR-81" value="checks" style="edgeLabel;html=1;align=center;verticalAlign=middle;resizable=0;points=[];" vertex="1" connectable="0" parent="30yQaxvcxM4nG7VqYGFR-80">
          <mxGeometry x="0.0378" y="-4" relative="1" as="geometry">
            <mxPoint y="1" as="offset" />
          </mxGeometry>
        </mxCell>
        <mxCell id="30yQaxvcxM4nG7VqYGFR-113" value="1" style="edgeLabel;html=1;align=center;verticalAlign=middle;resizable=0;points=[];" vertex="1" connectable="0" parent="30yQaxvcxM4nG7VqYGFR-80">
          <mxGeometry x="-0.9549" y="2" relative="1" as="geometry">
            <mxPoint as="offset" />
          </mxGeometry>
        </mxCell>
        <mxCell id="30yQaxvcxM4nG7VqYGFR-114" value="0..*" style="edgeLabel;html=1;align=center;verticalAlign=middle;resizable=0;points=[];" vertex="1" connectable="0" parent="30yQaxvcxM4nG7VqYGFR-80">
          <mxGeometry x="0.9169" y="2" relative="1" as="geometry">
            <mxPoint as="offset" />
          </mxGeometry>
        </mxCell>
        <mxCell id="30yQaxvcxM4nG7VqYGFR-50" value="&lt;b&gt;&lt;span style=&quot;font-size:12.0pt;line-height:115%;font-family:&amp;quot;Calibri&amp;quot;,&amp;quot;sans-serif&amp;quot;;&lt;br/&gt;mso-ascii-theme-font:minor-latin;mso-fareast-font-family:Calibri;mso-fareast-theme-font:&lt;br/&gt;minor-latin;mso-hansi-theme-font:minor-latin;mso-bidi-font-family:&amp;quot;Times New Roman&amp;quot;;&lt;br/&gt;mso-bidi-theme-font:minor-bidi;mso-font-kerning:1.0pt;mso-ansi-language:EN-US;&lt;br/&gt;mso-fareast-language:EN-US;mso-bidi-language:AR-SA&quot; lang=&quot;EN-US&quot;&gt;Moderator&lt;/span&gt;&lt;span style=&quot;font-size:12.0pt;line-height:115%;font-family:&amp;quot;Calibri&amp;quot;,&amp;quot;sans-serif&amp;quot;;&lt;br/&gt;mso-ascii-theme-font:minor-latin;mso-fareast-font-family:Calibri;mso-fareast-theme-font:&lt;br/&gt;minor-latin;mso-hansi-theme-font:minor-latin;mso-bidi-font-family:&amp;quot;Times New Roman&amp;quot;;&lt;br/&gt;mso-bidi-theme-font:minor-bidi;mso-font-kerning:1.0pt;mso-ansi-language:EL;&lt;br/&gt;mso-fareast-language:EN-US;mso-bidi-language:AR-SA&quot; lang=&quot;EN-US&quot;&gt;&lt;/span&gt;&lt;/b&gt;" style="swimlane;html=1;fontStyle=1;align=center;verticalAlign=top;childLayout=stackLayout;horizontal=1;startSize=26;horizontalStack=0;resizeParent=1;resizeLast=0;collapsible=1;marginBottom=0;swimlaneFillColor=#ffffff;rounded=1;shadow=0;comic=0;labelBackgroundColor=none;strokeWidth=1;fillColor=#e1d5e7;fontFamily=Verdana;fontSize=12;sketch=1;curveFitting=1;jiggle=2;strokeColor=#9673a6;" vertex="1" parent="1">
          <mxGeometry x="320" y="-180" width="160" height="90" as="geometry" />
        </mxCell>
        <mxCell id="30yQaxvcxM4nG7VqYGFR-51" value="Privileges: String" style="text;html=1;align=center;verticalAlign=middle;resizable=0;points=[];autosize=1;strokeColor=none;fillColor=none;" vertex="1" parent="30yQaxvcxM4nG7VqYGFR-50">
          <mxGeometry y="26" width="160" height="26" as="geometry" />
        </mxCell>
        <mxCell id="30yQaxvcxM4nG7VqYGFR-57" style="edgeStyle=orthogonalEdgeStyle;rounded=0;orthogonalLoop=1;jettySize=auto;html=1;entryX=0.499;entryY=0.996;entryDx=0;entryDy=0;entryPerimeter=0;endArrow=block;endFill=0;" edge="1" parent="1" source="30yQaxvcxM4nG7VqYGFR-50" target="30yQaxvcxM4nG7VqYGFR-19">
          <mxGeometry relative="1" as="geometry" />
        </mxCell>
        <mxCell id="30yQaxvcxM4nG7VqYGFR-58" value="extends" style="edgeLabel;html=1;align=center;verticalAlign=middle;resizable=0;points=[];" vertex="1" connectable="0" parent="30yQaxvcxM4nG7VqYGFR-57">
          <mxGeometry x="-0.0557" y="-2" relative="1" as="geometry">
            <mxPoint y="1" as="offset" />
          </mxGeometry>
        </mxCell>
        <mxCell id="30yQaxvcxM4nG7VqYGFR-64" value="&lt;span id=&quot;docs-internal-guid-1561e7d6-7fff-89ee-e552-ebd9630c0ea6&quot; style=&quot;font-size: 12pt; font-family: Calibri, sans-serif; color: rgb(0, 0, 0); background-color: transparent; font-weight: 700; font-style: normal; font-variant: normal; text-decoration: none; vertical-align: baseline; white-space: pre-wrap;&quot;&gt; Post&lt;/span&gt;&lt;div&gt;&lt;font face=&quot;Calibri, sans-serif&quot;&gt;&lt;span style=&quot;font-size: 16px;&quot;&gt;(Lost)&lt;/span&gt;&lt;/font&gt;&lt;/div&gt;" style="swimlane;html=1;fontStyle=1;align=center;verticalAlign=top;childLayout=stackLayout;horizontal=1;startSize=70;horizontalStack=0;resizeParent=1;resizeLast=0;collapsible=1;marginBottom=0;swimlaneFillColor=#ffffff;rounded=1;shadow=0;comic=0;labelBackgroundColor=none;strokeWidth=1;fillColor=#e1d5e7;fontFamily=Verdana;fontSize=12;sketch=1;curveFitting=1;jiggle=2;strokeColor=#9673a6;" vertex="1" parent="1">
          <mxGeometry x="-150" y="470" width="220" height="147" as="geometry" />
        </mxCell>
        <mxCell id="30yQaxvcxM4nG7VqYGFR-65" value="&lt;div&gt;Time: String&lt;/div&gt;&lt;div&gt;Reward: Double&lt;/div&gt;" style="text;html=1;align=center;verticalAlign=middle;resizable=0;points=[];autosize=1;strokeColor=none;fillColor=none;" vertex="1" parent="30yQaxvcxM4nG7VqYGFR-64">
          <mxGeometry y="70" width="220" height="41" as="geometry" />
        </mxCell>
        <mxCell id="30yQaxvcxM4nG7VqYGFR-66" value="Post&lt;div&gt;&lt;font face=&quot;Calibri, sans-serif&quot;&gt;&lt;span style=&quot;font-size: 16px;&quot;&gt;(Found)&lt;/span&gt;&lt;/font&gt;&lt;/div&gt;" style="swimlane;html=1;fontStyle=1;align=center;verticalAlign=top;childLayout=stackLayout;horizontal=1;startSize=74;horizontalStack=0;resizeParent=1;resizeLast=0;collapsible=1;marginBottom=0;swimlaneFillColor=#ffffff;rounded=1;shadow=0;comic=0;labelBackgroundColor=none;strokeWidth=1;fillColor=#e1d5e7;fontFamily=Verdana;fontSize=12;sketch=1;curveFitting=1;jiggle=2;strokeColor=#9673a6;" vertex="1" parent="1">
          <mxGeometry x="730" y="470" width="205" height="147" as="geometry" />
        </mxCell>
        <mxCell id="30yQaxvcxM4nG7VqYGFR-74" style="edgeStyle=orthogonalEdgeStyle;rounded=0;orthogonalLoop=1;jettySize=auto;html=1;exitX=0;exitY=0.25;exitDx=0;exitDy=0;endArrow=block;endFill=0;" edge="1" parent="1" source="30yQaxvcxM4nG7VqYGFR-64" target="30yQaxvcxM4nG7VqYGFR-72">
          <mxGeometry relative="1" as="geometry">
            <Array as="points">
              <mxPoint x="-370" y="507" />
              <mxPoint x="-370" y="-640" />
            </Array>
          </mxGeometry>
        </mxCell>
        <mxCell id="30yQaxvcxM4nG7VqYGFR-76" value="extends" style="edgeLabel;html=1;align=center;verticalAlign=middle;resizable=0;points=[];" vertex="1" connectable="0" parent="30yQaxvcxM4nG7VqYGFR-74">
          <mxGeometry x="0.7464" relative="1" as="geometry">
            <mxPoint x="1" as="offset" />
          </mxGeometry>
        </mxCell>
        <mxCell id="30yQaxvcxM4nG7VqYGFR-102" style="edgeStyle=orthogonalEdgeStyle;rounded=0;orthogonalLoop=1;jettySize=auto;html=1;entryX=1;entryY=0.25;entryDx=0;entryDy=0;" edge="1" parent="1" source="30yQaxvcxM4nG7VqYGFR-72" target="30yQaxvcxM4nG7VqYGFR-99">
          <mxGeometry relative="1" as="geometry">
            <Array as="points">
              <mxPoint x="149" y="-620" />
              <mxPoint x="149" y="-508" />
            </Array>
          </mxGeometry>
        </mxCell>
        <mxCell id="30yQaxvcxM4nG7VqYGFR-103" value="belongs to" style="edgeLabel;html=1;align=center;verticalAlign=middle;resizable=0;points=[];" vertex="1" connectable="0" parent="30yQaxvcxM4nG7VqYGFR-102">
          <mxGeometry x="0.6801" y="-2" relative="1" as="geometry">
            <mxPoint x="24" as="offset" />
          </mxGeometry>
        </mxCell>
        <mxCell id="30yQaxvcxM4nG7VqYGFR-119" value="0..*" style="edgeLabel;html=1;align=center;verticalAlign=middle;resizable=0;points=[];" vertex="1" connectable="0" parent="30yQaxvcxM4nG7VqYGFR-102">
          <mxGeometry x="-0.917" relative="1" as="geometry">
            <mxPoint as="offset" />
          </mxGeometry>
        </mxCell>
        <mxCell id="30yQaxvcxM4nG7VqYGFR-120" value="1" style="edgeLabel;html=1;align=center;verticalAlign=middle;resizable=0;points=[];" vertex="1" connectable="0" parent="30yQaxvcxM4nG7VqYGFR-102">
          <mxGeometry x="0.8999" y="1" relative="1" as="geometry">
            <mxPoint as="offset" />
          </mxGeometry>
        </mxCell>
        <mxCell id="30yQaxvcxM4nG7VqYGFR-72" value="Post" style="swimlane;html=1;fontStyle=1;align=center;verticalAlign=top;childLayout=stackLayout;horizontal=1;startSize=50;horizontalStack=0;resizeParent=1;resizeLast=0;collapsible=1;marginBottom=0;swimlaneFillColor=#ffffff;rounded=1;shadow=0;comic=0;labelBackgroundColor=none;strokeWidth=1;fillColor=#e1d5e7;fontFamily=Verdana;fontSize=12;sketch=1;curveFitting=1;jiggle=2;strokeColor=#9673a6;" vertex="1" parent="1">
          <mxGeometry x="298" y="-730" width="204" height="180.5" as="geometry" />
        </mxCell>
        <mxCell id="30yQaxvcxM4nG7VqYGFR-73" value="&lt;div&gt;Post ID: Integer&lt;/div&gt;&lt;div&gt;Posted by (username): String&lt;/div&gt;&lt;div&gt;Post About (ItemID): String&lt;/div&gt;&lt;div&gt;Description: String&lt;/div&gt;&lt;div&gt;PhotoURL: String&lt;/div&gt;&lt;div&gt;Location: String&lt;/div&gt;" style="text;html=1;align=center;verticalAlign=middle;resizable=0;points=[];autosize=1;strokeColor=none;fillColor=none;" vertex="1" parent="30yQaxvcxM4nG7VqYGFR-72">
          <mxGeometry y="50" width="204" height="98" as="geometry" />
        </mxCell>
        <mxCell id="30yQaxvcxM4nG7VqYGFR-75" style="edgeStyle=orthogonalEdgeStyle;rounded=0;orthogonalLoop=1;jettySize=auto;html=1;exitX=1;exitY=0.25;exitDx=0;exitDy=0;endArrow=block;endFill=0;" edge="1" parent="1" source="30yQaxvcxM4nG7VqYGFR-66" target="30yQaxvcxM4nG7VqYGFR-73">
          <mxGeometry relative="1" as="geometry">
            <Array as="points">
              <mxPoint x="1160" y="507" />
              <mxPoint x="1160" y="-640" />
            </Array>
          </mxGeometry>
        </mxCell>
        <mxCell id="30yQaxvcxM4nG7VqYGFR-77" value="extends" style="edgeLabel;html=1;align=center;verticalAlign=middle;resizable=0;points=[];" vertex="1" connectable="0" parent="30yQaxvcxM4nG7VqYGFR-75">
          <mxGeometry x="0.667" y="2" relative="1" as="geometry">
            <mxPoint as="offset" />
          </mxGeometry>
        </mxCell>
        <mxCell id="30yQaxvcxM4nG7VqYGFR-85" value="Notification" style="swimlane;html=1;fontStyle=1;align=center;verticalAlign=top;childLayout=stackLayout;horizontal=1;startSize=26;horizontalStack=0;resizeParent=1;resizeLast=0;collapsible=1;marginBottom=0;swimlaneFillColor=#ffffff;rounded=1;shadow=0;comic=0;labelBackgroundColor=none;strokeWidth=1;fillColor=#e1d5e7;fontFamily=Verdana;fontSize=12;sketch=1;curveFitting=1;jiggle=2;strokeColor=#9673a6;" vertex="1" parent="1">
          <mxGeometry x="1210" y="-540" width="295" height="138" as="geometry" />
        </mxCell>
        <mxCell id="30yQaxvcxM4nG7VqYGFR-86" value="&lt;div align=&quot;center&quot;&gt;NotificationID: Integer&lt;/div&gt;&lt;div align=&quot;center&quot;&gt;Username: String&lt;/div&gt;&lt;div align=&quot;center&quot;&gt;Type: Enum(Item Found, Status Update, Message)&lt;/div&gt;&lt;div align=&quot;center&quot;&gt;Content: String&lt;/div&gt;&lt;div align=&quot;center&quot;&gt;Seen: Boolean&lt;/div&gt;" style="text;html=1;align=center;verticalAlign=middle;resizable=0;points=[];autosize=1;strokeColor=none;fillColor=none;" vertex="1" parent="30yQaxvcxM4nG7VqYGFR-85">
          <mxGeometry y="26" width="295" height="84" as="geometry" />
        </mxCell>
        <mxCell id="30yQaxvcxM4nG7VqYGFR-87" value="Message" style="swimlane;html=1;fontStyle=1;align=center;verticalAlign=top;childLayout=stackLayout;horizontal=1;startSize=26;horizontalStack=0;resizeParent=1;resizeLast=0;collapsible=1;marginBottom=0;swimlaneFillColor=#ffffff;rounded=1;shadow=0;comic=0;labelBackgroundColor=none;strokeWidth=1;fillColor=#e1d5e7;fontFamily=Verdana;fontSize=12;sketch=1;curveFitting=1;jiggle=2;strokeColor=#9673a6;" vertex="1" parent="1">
          <mxGeometry x="1210" y="-340" width="295" height="138" as="geometry" />
        </mxCell>
        <mxCell id="30yQaxvcxM4nG7VqYGFR-88" value="&lt;div&gt;FromUsername: String&lt;/div&gt;&lt;div&gt;ToUsername: String&lt;/div&gt;&lt;div&gt;Text: String&lt;/div&gt;&lt;div&gt;TimeStamp: String&lt;/div&gt;" style="text;html=1;align=center;verticalAlign=middle;resizable=0;points=[];autosize=1;strokeColor=none;fillColor=none;" vertex="1" parent="30yQaxvcxM4nG7VqYGFR-87">
          <mxGeometry y="26" width="295" height="70" as="geometry" />
        </mxCell>
        <mxCell id="30yQaxvcxM4nG7VqYGFR-89" style="edgeStyle=orthogonalEdgeStyle;rounded=0;orthogonalLoop=1;jettySize=auto;html=1;entryX=0;entryY=0.75;entryDx=0;entryDy=0;" edge="1" parent="1" source="30yQaxvcxM4nG7VqYGFR-19" target="30yQaxvcxM4nG7VqYGFR-87">
          <mxGeometry relative="1" as="geometry">
            <Array as="points">
              <mxPoint x="888" y="-400" />
              <mxPoint x="888" y="-240" />
              <mxPoint x="1200" y="-240" />
              <mxPoint x="1200" y="-236" />
            </Array>
          </mxGeometry>
        </mxCell>
        <mxCell id="30yQaxvcxM4nG7VqYGFR-90" value="sends" style="edgeLabel;html=1;align=center;verticalAlign=middle;resizable=0;points=[];" vertex="1" connectable="0" parent="30yQaxvcxM4nG7VqYGFR-89">
          <mxGeometry x="0.3298" y="-4" relative="1" as="geometry">
            <mxPoint x="30" as="offset" />
          </mxGeometry>
        </mxCell>
        <mxCell id="30yQaxvcxM4nG7VqYGFR-123" value="1" style="edgeLabel;html=1;align=center;verticalAlign=middle;resizable=0;points=[];" vertex="1" connectable="0" parent="30yQaxvcxM4nG7VqYGFR-89">
          <mxGeometry x="-0.9493" relative="1" as="geometry">
            <mxPoint x="1" as="offset" />
          </mxGeometry>
        </mxCell>
        <mxCell id="30yQaxvcxM4nG7VqYGFR-124" value="0..*" style="edgeLabel;html=1;align=center;verticalAlign=middle;resizable=0;points=[];" vertex="1" connectable="0" parent="30yQaxvcxM4nG7VqYGFR-89">
          <mxGeometry x="0.9196" relative="1" as="geometry">
            <mxPoint as="offset" />
          </mxGeometry>
        </mxCell>
        <mxCell id="30yQaxvcxM4nG7VqYGFR-93" value="Rating" style="swimlane;html=1;fontStyle=1;align=center;verticalAlign=top;childLayout=stackLayout;horizontal=1;startSize=70;horizontalStack=0;resizeParent=1;resizeLast=0;collapsible=1;marginBottom=0;swimlaneFillColor=#ffffff;rounded=1;shadow=0;comic=0;labelBackgroundColor=none;strokeWidth=1;fillColor=#e1d5e7;fontFamily=Verdana;fontSize=12;sketch=1;curveFitting=1;jiggle=2;strokeColor=#9673a6;" vertex="1" parent="1">
          <mxGeometry x="1219" y="-136" width="277" height="226" as="geometry" />
        </mxCell>
        <mxCell id="30yQaxvcxM4nG7VqYGFR-94" value="&lt;div&gt;RatingId: Integer&lt;/div&gt;&lt;div&gt;RaterUsername: String&lt;/div&gt;&lt;div&gt;RateeUsername: String&lt;/div&gt;&lt;div&gt;Score: Double&lt;/div&gt;&lt;div&gt;Comment: String&lt;/div&gt;" style="text;html=1;align=center;verticalAlign=middle;resizable=0;points=[];autosize=1;strokeColor=none;fillColor=none;" vertex="1" parent="30yQaxvcxM4nG7VqYGFR-93">
          <mxGeometry y="70" width="277" height="90" as="geometry" />
        </mxCell>
        <mxCell id="30yQaxvcxM4nG7VqYGFR-97" style="edgeStyle=orthogonalEdgeStyle;rounded=0;orthogonalLoop=1;jettySize=auto;html=1;entryX=0;entryY=0.25;entryDx=0;entryDy=0;" edge="1" parent="1" source="30yQaxvcxM4nG7VqYGFR-19" target="30yQaxvcxM4nG7VqYGFR-93">
          <mxGeometry relative="1" as="geometry">
            <Array as="points">
              <mxPoint x="790" y="-330" />
              <mxPoint x="790" y="-79" />
            </Array>
          </mxGeometry>
        </mxCell>
        <mxCell id="30yQaxvcxM4nG7VqYGFR-98" value="gets" style="edgeLabel;html=1;align=center;verticalAlign=middle;resizable=0;points=[];" vertex="1" connectable="0" parent="30yQaxvcxM4nG7VqYGFR-97">
          <mxGeometry x="0.4757" y="3" relative="1" as="geometry">
            <mxPoint x="-1" as="offset" />
          </mxGeometry>
        </mxCell>
        <mxCell id="30yQaxvcxM4nG7VqYGFR-126" value="1" style="edgeLabel;html=1;align=center;verticalAlign=middle;resizable=0;points=[];" vertex="1" connectable="0" parent="30yQaxvcxM4nG7VqYGFR-97">
          <mxGeometry x="-0.9458" y="-1" relative="1" as="geometry">
            <mxPoint x="1" as="offset" />
          </mxGeometry>
        </mxCell>
        <mxCell id="30yQaxvcxM4nG7VqYGFR-127" value="0..*" style="edgeLabel;html=1;align=center;verticalAlign=middle;resizable=0;points=[];" vertex="1" connectable="0" parent="30yQaxvcxM4nG7VqYGFR-97">
          <mxGeometry x="0.9159" y="-2" relative="1" as="geometry">
            <mxPoint y="1" as="offset" />
          </mxGeometry>
        </mxCell>
        <mxCell id="30yQaxvcxM4nG7VqYGFR-99" value="Category" style="swimlane;html=1;fontStyle=1;align=center;verticalAlign=top;childLayout=stackLayout;horizontal=1;startSize=74;horizontalStack=0;resizeParent=1;resizeLast=0;collapsible=1;marginBottom=0;swimlaneFillColor=#ffffff;rounded=1;shadow=0;comic=0;labelBackgroundColor=none;strokeWidth=1;fillColor=#e1d5e7;fontFamily=Verdana;fontSize=12;sketch=1;curveFitting=1;jiggle=2;strokeColor=#9673a6;" vertex="1" parent="1">
          <mxGeometry x="-249.5" y="-560" width="250" height="208" as="geometry" />
        </mxCell>
        <mxCell id="30yQaxvcxM4nG7VqYGFR-100" value="&lt;div&gt;&lt;code data-end=&quot;2291&quot; data-start=&quot;2270&quot;&gt;categoryId: Integer&lt;/code&gt;&lt;/div&gt;&lt;div&gt;&lt;code data-end=&quot;2313&quot; data-start=&quot;2299&quot;&gt;name: String&lt;/code&gt;&lt;/div&gt;&lt;div&gt;&lt;code data-end=&quot;2342&quot; data-start=&quot;2321&quot;&gt;description: String&lt;/code&gt;&lt;/div&gt;" style="text;html=1;align=center;verticalAlign=middle;resizable=0;points=[];autosize=1;strokeColor=none;fillColor=none;" vertex="1" parent="30yQaxvcxM4nG7VqYGFR-99">
          <mxGeometry y="74" width="250" height="56" as="geometry" />
        </mxCell>
        <mxCell id="30yQaxvcxM4nG7VqYGFR-104" value="&lt;span id=&quot;docs-internal-guid-1561e7d6-7fff-89ee-e552-ebd9630c0ea6&quot; style=&quot;font-size: 12pt; font-family: Calibri, sans-serif; color: rgb(0, 0, 0); background-color: transparent; font-weight: 700; font-style: normal; font-variant: normal; text-decoration: none; vertical-align: baseline; white-space: pre-wrap;&quot;&gt;Transaction&lt;/span&gt;" style="swimlane;html=1;fontStyle=1;align=center;verticalAlign=top;childLayout=stackLayout;horizontal=1;startSize=70;horizontalStack=0;resizeParent=1;resizeLast=0;collapsible=1;marginBottom=0;swimlaneFillColor=#ffffff;rounded=1;shadow=0;comic=0;labelBackgroundColor=none;strokeWidth=1;fillColor=#e1d5e7;fontFamily=Verdana;fontSize=12;sketch=1;curveFitting=1;jiggle=2;strokeColor=#9673a6;" vertex="1" parent="1">
          <mxGeometry x="264" y="970" width="277" height="226" as="geometry" />
        </mxCell>
        <mxCell id="30yQaxvcxM4nG7VqYGFR-105" value="&lt;div&gt;transactionId: Integer&lt;/div&gt;&lt;div&gt;fromUsername: String&lt;/div&gt;&lt;div&gt;toUsername: String&lt;/div&gt;&lt;div&gt;amount: Double&lt;/div&gt;&lt;div&gt;currency: String&lt;/div&gt;&lt;div&gt;status: Enum {Pending, Successful, Failed}&lt;/div&gt;&lt;div&gt;When: DateTime&lt;/div&gt;" style="text;html=1;align=center;verticalAlign=middle;resizable=0;points=[];autosize=1;strokeColor=none;fillColor=none;" vertex="1" parent="30yQaxvcxM4nG7VqYGFR-104">
          <mxGeometry y="70" width="277" height="113" as="geometry" />
        </mxCell>
      </root>
    </mxGraphModel>
  </diagram>
</mxfile>
